# xmcd
#
# Track frame offsets:
#  150
#  16004
#  34666
#  55341
#  70090
#  87530
#
# Disc length: 1335 seconds
#
# Revision: 1
# Processed by: cddbd v1.5.1PL0 Copyright (c) Steve Scherf et al.
# Submitted via: AltoMP3_Maker 3.0
#
DISCID=44053506
DTITLE=Jael - Infecting Your Mind
DYEAR=1900
DGENRE=
TTITLE0=Broken
TTITLE1=Sorry's Too Late
TTITLE2=Unevolved
TTITLE3=Echo
TTITLE4=Make Believe
TTITLE5=Nu Hope
EXTD=
EXTT0=
EXTT1=
EXTT2=
EXTT3=
EXTT4=
EXTT5=
PLAYORDER=
